<svg height="39" viewBox="0 0 243 39" width="243" xmlns="http://www.w3.org/2000/svg"><g fill="#fff"><g fill-rule="evenodd"><path d="m40.15 28.99v-19.69h6.99l4.09 14.12 4.15-14.12h6.99v19.69h-4.54v-15.47l-4.68 15.47h-3.83l-4.66-15.47v15.47z"/><path d="m67.14 28.99v-11.2h-2.77v-3.42h7.28v14.62zm2.27-17.03c-.73 0-1.35-.26-1.87-.78s-.78-1.14-.78-1.87.26-1.37.78-1.89c.52-.51 1.14-.76 1.87-.76s1.38.25 1.89.76.76 1.14.76 1.89-.25 1.35-.76 1.87-1.14.78-1.89.78z"/><path d="m79.25 28.99c-1.2 0-2.15-.1-2.86-.31-.7-.21-1.21-.61-1.51-1.21-.31-.6-.46-1.47-.46-2.61v-15.56h4.48v14.38c0 .69.14 1.13.41 1.34s.79.31 1.53.31h1.27v3.65h-2.86z"/><path d="m84.88 28.99v-11.2h-2.77v-3.42h7.28v14.62zm2.27-17.03c-.73 0-1.35-.26-1.87-.78s-.78-1.14-.78-1.87.26-1.37.78-1.89c.52-.51 1.14-.76 1.87-.76s1.38.25 1.89.76.76 1.14.76 1.89-.25 1.35-.76 1.87-1.14.78-1.89.78z"/><path d="m98.31 28.99c-1.2 0-2.15-.1-2.86-.31s-1.21-.61-1.51-1.21c-.31-.6-.46-1.47-.46-2.61v-7.07h-2.42v-3.42h2.42v-3.66h4.48v3.66h3.18v3.42h-3.18v5.89c0 .69.13 1.13.4 1.34.26.21.76.31 1.49.31h1.3v3.65h-2.83z"/><path d="m107.6 29.35c-.92 0-1.77-.18-2.53-.53-.77-.36-1.38-.85-1.83-1.49s-.68-1.4-.68-2.28c0-1.2.42-2.15 1.25-2.86s1.98-1.24 3.43-1.59 3.12-.6 5.01-.74c0-1.04-.17-1.78-.5-2.21s-.98-.65-1.94-.65c-.61 0-1.14.14-1.61.43-.46.28-.77.72-.93 1.31l-3.77-1.35c.49-.99 1.31-1.8 2.46-2.45s2.56-.97 4.23-.97c2.08 0 3.68.46 4.8 1.39 1.12.92 1.68 2.49 1.68 4.71v3.21c0 .63.02 1.31.06 2.03.04.73.1 1.42.17 2.06.08.65.17 1.19.27 1.62h-4.16l-.53-1.77c-.55.76-1.24 1.31-2.08 1.64-.83.32-1.77.49-2.81.49m1.66-3.07c.88 0 1.62-.24 2.21-.71s.88-1.37.88-2.71v-.35c-1.55.14-2.8.35-3.74.63-.94.29-1.41.81-1.41 1.58 0 .47.2.85.59 1.14.39.28.88.43 1.47.43"/><path d="m119.62 28.99v-14.62h3.53l.8 2.68c.45-1.18 1.07-2.01 1.86-2.48.78-.47 1.74-.68 2.86-.62v4.48c-.23-.04-.44-.06-.62-.07s-.37-.01-.59-.01c-1.08 0-1.91.25-2.49.77-.58.51-.87 1.34-.87 2.5v7.37z"/><path d="m131.79 33.74v-3.24h.88c.67 0 1.17-.03 1.5-.09s.6-.2.78-.43c.19-.23.36-.58.52-1.08l-5.6-14.53h4.8l2.86 9.14 2.8-9.14h4.8l-5.6 14.62c-.47 1.24-.95 2.2-1.43 2.89s-1.09 1.17-1.84 1.45c-.74.27-1.76.41-3.03.41z"/><path d="m152.23 28.99-4.74-19.69h4.66l2.74 13.65 2.88-13.65h4.84l2.91 13.65 2.74-13.65h4.66l-4.75 19.69h-4.98l-3-13.85-2.98 13.85z"/><path d="m178.13 29.35c-.92 0-1.77-.18-2.53-.53-.76-.36-1.37-.85-1.82-1.49-.46-.64-.68-1.4-.68-2.28 0-1.2.42-2.15 1.25-2.86s1.98-1.24 3.43-1.59 3.12-.6 5.01-.74c0-1.04-.17-1.78-.5-2.21-.34-.43-.98-.65-1.94-.65-.61 0-1.15.14-1.61.43-.46.28-.77.72-.93 1.31l-3.77-1.35c.49-.99 1.31-1.8 2.46-2.45s2.56-.97 4.23-.97c2.08 0 3.68.46 4.8 1.39 1.12.92 1.68 2.49 1.68 4.71v3.21c0 .63.02 1.31.06 2.03.04.73.1 1.42.18 2.06.08.65.17 1.19.27 1.62h-4.16l-.53-1.77c-.55.76-1.24 1.31-2.08 1.64-.84.32-1.78.49-2.82.49m1.65-3.07c.88 0 1.62-.24 2.21-.71s.88-1.37.88-2.71v-.35c-1.56.14-2.8.35-3.74.63-.94.29-1.41.81-1.41 1.58 0 .47.2.85.59 1.14.39.28.88.43 1.47.43"/><path d="m194.99 28.99c-1.2 0-2.15-.1-2.86-.31s-1.21-.61-1.52-1.21c-.3-.6-.46-1.47-.46-2.61v-15.56h4.48v14.38c0 .69.14 1.13.41 1.34s.79.31 1.53.31h1.27v3.65h-2.86z"/><path d="m204.24 28.99c-1.2 0-2.15-.1-2.86-.31s-1.21-.61-1.52-1.21c-.3-.6-.46-1.47-.46-2.61v-15.56h4.48v14.38c0 .69.14 1.13.41 1.34s.79.31 1.53.31h1.27v3.65h-2.86z"/><path d="m215.91 29.35c-1.57 0-2.96-.31-4.17-.93s-2.15-1.51-2.83-2.67-1.02-2.54-1.02-4.16.36-2.9 1.07-4.04c.72-1.14 1.67-2.03 2.86-2.65 1.19-.63 2.49-.95 3.91-.95 1.61 0 2.99.38 4.14 1.13 1.15.76 2.02 1.8 2.61 3.13s.84 2.85.74 4.58h-10.81c.08 1.02.46 1.79 1.13 2.3.68.51 1.43.77 2.25.77.69 0 1.28-.1 1.78-.31s.89-.47 1.16-.78l3.57 1.3c-.77 1.12-1.72 1.95-2.87 2.47-1.15.53-2.32.8-3.52.8m-3.51-9.19h6.66c-.02-.94-.34-1.66-.97-2.14s-1.38-.72-2.24-.72-1.6.23-2.25.68c-.66.45-1.06 1.18-1.19 2.18"/><path d="m231.49 28.99c-1.2 0-2.15-.1-2.86-.31s-1.21-.61-1.52-1.21c-.3-.6-.46-1.47-.46-2.61v-7.07h-2.41v-3.42h2.41v-3.66h4.48v3.66h3.18v3.42h-3.18v5.89c0 .69.13 1.13.4 1.34s.76.31 1.49.31h1.29v3.65h-2.83z"/></g><path d="m29.14 7.27c.14-.12.33-.14.5-.06s.27.25.27.43v5.36l-11.42 9.17v4.792l11.41-9.242v6.61c0 1.56-.76 3.03-2.04 3.93l-7.48 5.25c-.57.4-1.26.6-1.92.6s-1.32-.19-1.88-.57l-7.69-5.23c-1.31-.89-2.1-2.38-2.1-3.97v-16.69c0-.18.11-.35.27-.43s.36-.06.5.05l10.93 8.44zm-16.22 11.27-.68 2.09h-2.19l1.77 1.29-.68 2.08 1.78-1.28 1.77 1.28-.68-2.08 1.78-1.29h-2.2z"/></g></svg>